<?xml version="1.0" standalone="no"?>
<!DOCTYPE svg PUBLIC "-//W3C//DTD SVG 20010904//EN"
 "http://www.w3.org/TR/2001/REC-SVG-20010904/DTD/svg10.dtd">
<svg version="1.0" xmlns="http://www.w3.org/2000/svg"
 width="382.000000pt" height="382.000000pt" viewBox="0 0 382.000000 382.000000"
 preserveAspectRatio="xMidYMid meet">
<metadata>
Created by potrace 1.11, written by Peter Selinger 2001-2013
</metadata>
<g transform="translate(0.000000,382.000000) scale(0.100000,-0.100000)"
fill="#000000" stroke="none">
<path d="M1910 3754 l0 -69 -123 -2 c-109 -1 -170 -10 -341 -48 -59 -13 -194
-64 -283 -106 -482 -225 -834 -639 -973 -1144 -21 -79 -50 -235 -51 -285 -2
-48 -6 -55 -65 -118 -35 -37 -64 -69 -64 -72 0 -3 27 -5 60 -5 l60 2 0 -94 c0
-159 37 -346 105 -528 162 -434 477 -780 890 -980 209 -102 449 -168 602 -168
38 0 48 -6 108 -64 36 -34 68 -63 70 -63 3 0 5 29 5 63 l0 64 103 1 c133 1
170 5 302 35 242 55 483 168 690 325 80 61 250 231 312 312 109 142 178 261
243 417 38 91 96 282 105 346 2 17 9 56 15 86 5 29 10 68 10 85 0 26 12 45 60
94 33 33 60 63 60 66 0 4 -27 6 -60 6 -41 0 -60 4 -61 13 -1 6 -1 46 0 87 0
41 -4 102 -9 135 -5 33 -12 78 -15 100 -3 22 -10 54 -16 71 -5 17 -11 40 -13
51 -9 43 -37 127 -72 215 -164 410 -491 755 -899 947 -153 73 -440 151 -567
155 -45 1 -52 6 -118 70 l-70 69 0 -69z m283 -350 c10 -2 26 -5 35 -8 9 -3 28
-7 42 -10 43 -7 202 -62 265 -92 253 -118 484 -318 630 -544 104 -159 189
-371 223 -553 19 -97 29 -237 17 -237 -15 0 -105 51 -105 60 0 17 -62 7 -74
-12 -8 -13 -23 -18 -53 -18 -44 0 -50 8 -33 40 8 15 3 24 -28 52 -37 33 -65
40 -104 24 -19 -9 -61 11 -53 24 9 15 -25 60 -45 60 -10 0 -35 -7 -55 -16 -35
-14 -39 -14 -47 0 -11 19 -98 22 -116 4 -8 -8 -12 -9 -12 -1 0 6 -13 14 -29
18 -16 3 -31 12 -34 18 -7 18 10 57 28 63 8 4 15 10 15 15 0 9 12 25 62 80 16
18 40 49 53 68 20 33 21 38 6 51 -33 32 -118 63 -176 64 -16 1 -35 4 -40 8 -6
3 -25 5 -43 4 -18 -1 -35 1 -38 6 -3 4 -22 8 -42 8 -20 0 -55 5 -77 11 -22 6
-56 12 -75 13 -19 2 -35 4 -35 6 0 1 -18 4 -40 6 -103 9 -113 13 -113 49 0 49
-11 75 -32 75 -29 0 -32 36 -3 49 42 19 48 81 8 81 -7 0 -18 6 -25 14 -6 8
-18 12 -26 9 -8 -3 -14 1 -15 8 0 8 -2 24 -3 37 -2 13 5 29 13 35 19 14 19 43
1 77 -8 14 -13 39 -12 55 3 39 2 53 -1 150 l-3 80 40 43 c43 45 43 45 149 26z
m-313 -22 c-19 -16 -42 -27 -51 -25 -9 3 -19 0 -23 -5 -8 -13 -79 -4 -88 11
-4 7 -8 19 -8 28 0 14 15 17 103 18 l102 2 -35 -29z m-357 -30 c-6 -4 -13 -20
-15 -36 -1 -16 -10 -32 -18 -37 -27 -14 -55 -22 -67 -20 -7 1 -13 -2 -13 -6 0
-5 -9 -9 -20 -10 -11 -1 -20 2 -20 6 0 5 -12 9 -27 9 -37 0 -79 -37 -75 -65 3
-18 -3 -22 -38 -28 -34 -6 -45 -3 -64 14 -12 12 -26 18 -29 14 -4 -3 -7 -2 -7
4 0 20 254 131 385 167 15 5 21 -4 8 -12z m-419 -174 c-5 -7 -22 -33 -39 -58
-17 -25 -31 -51 -30 -59 0 -8 -30 -31 -68 -50 -65 -35 -73 -44 -80 -96 -1 -11
-5 -24 -8 -30 -3 -5 -5 -25 -3 -42 1 -28 -2 -33 -20 -33 -12 0 -27 -9 -34 -20
-14 -23 -43 -26 -75 -8 -12 7 -33 11 -46 9 -22 -3 -22 -1 14 46 80 104 202
219 325 306 72 51 75 53 64 35z m-457 -591 c-1 -6 -14 -35 -29 -65 -20 -39
-28 -69 -28 -107 0 -31 -6 -59 -13 -67 -7 -7 -21 -28 -30 -47 -16 -32 -16 -34
3 -51 11 -10 41 -23 68 -30 26 -7 61 -16 77 -21 17 -5 32 -9 35 -9 3 0 38 -11
78 -24 39 -14 72 -22 72 -19 0 3 6 0 14 -6 8 -6 18 -11 22 -10 27 5 46 -2 41
-15 -3 -8 -3 -17 0 -20 4 -3 8 -27 10 -52 2 -42 1 -45 -20 -43 -25 3 -232 -10
-388 -24 l-56 -5 -53 53 -52 52 17 89 c28 154 106 378 160 460 l17 26 28 -27
c16 -15 28 -32 27 -38z m-203 -825 c3 -5 7 -20 10 -35 3 -20 -1 -30 -15 -37
-10 -6 -19 -7 -20 -3 0 4 -2 25 -5 46 -3 28 -1 37 10 37 8 0 17 -4 20 -8z
m2961 -8 c10 -11 14 -26 11 -43 -3 -14 -8 -44 -12 -66 -3 -22 -10 -58 -16 -80
-5 -22 -12 -47 -13 -55 -10 -45 -52 -156 -90 -237 -113 -241 -288 -447 -514
-602 -57 -39 -77 -48 -88 -40 -7 6 -13 20 -13 30 0 16 -29 32 -62 34 -9 0 -89
115 -80 115 4 0 2 4 -5 8 -15 10 -83 111 -83 125 0 6 8 19 17 29 13 15 15 23
6 36 -8 13 -5 26 11 57 11 22 24 42 29 43 4 2 7 12 7 21 0 10 8 29 18 42 29
39 62 99 62 115 0 8 5 15 10 15 22 3 36 2 50 -4 30 -12 135 -31 155 -28 16 2
82 6 216 10 19 1 59 34 59 50 0 6 9 16 20 23 12 8 20 24 20 39 0 24 6 28 50
39 62 15 75 35 72 113 -2 31 1 57 6 57 12 0 53 76 45 84 -3 3 -1 6 5 6 7 0 12
13 12 30 0 46 61 68 95 34z m-2914 -213 c8 -1 30 -51 36 -81 2 -14 8 -26 14
-28 5 -2 9 -9 9 -16 0 -14 57 -15 79 -2 7 5 31 1 54 -7 23 -8 49 -15 57 -16
47 -1 109 -16 137 -33 26 -16 39 -17 68 -9 31 8 38 7 55 -12 11 -11 20 -27 20
-34 0 -7 5 -13 10 -13 6 0 13 -7 17 -17 6 -16 103 -118 103 -108 0 3 9 1 20
-5 11 -6 20 -17 20 -24 0 -7 11 -22 25 -32 14 -10 25 -22 25 -27 0 -21 77 -76
115 -83 22 -3 44 -9 49 -12 5 -3 21 -6 35 -8 14 -1 40 -5 56 -9 17 -3 41 -8
55 -10 77 -14 136 -28 145 -34 6 -5 25 -7 43 -5 17 1 32 -2 32 -7 0 -5 7 -9
15 -9 9 0 29 -14 45 -30 33 -34 40 -35 78 -17 15 7 36 13 47 12 28 -1 67 -24
60 -35 -3 -6 -1 -15 5 -22 84 -99 76 -93 140 -94 56 0 62 -2 85 -34 14 -19 25
-42 25 -51 0 -10 4 -20 9 -23 11 -7 11 -56 0 -56 -5 0 -9 -7 -9 -15 0 -8 5
-15 12 -15 6 0 8 -3 5 -7 -4 -3 0 -17 8 -30 18 -27 19 -26 -65 -43 -30 -5 -66
-13 -80 -16 -14 -3 -73 -8 -132 -11 l-108 -5 0 76 c0 42 -3 76 -7 76 -5 0 -43
-36 -87 -80 -43 -44 -84 -80 -91 -80 -36 0 -192 35 -275 61 -272 88 -526 261
-700 478 -19 24 -40 48 -45 55 -28 30 -122 189 -157 263 -37 80 -98 252 -98
279 0 7 8 11 18 9 9 -2 20 -4 23 -4z"/>
</g>
</svg>
